<svg xmlns="http://www.w3.org/2000/svg" version="1.1" xmlns:xlink="http://www.w3.org/1999/xlink" xmlns:svgjs="http://svgjs.dev/svgjs" width="2000" height="237" viewBox="0 0 2000 237"><g transform="matrix(1,0,0,1,-1.2121212121212466,0.29327863436503776)"><svg viewBox="0 0 396 47" data-background-color="#ffffff" preserveAspectRatio="xMidYMid meet" height="237" width="2000" xmlns="http://www.w3.org/2000/svg" xmlns:xlink="http://www.w3.org/1999/xlink"><g id="tight-bounds" transform="matrix(1,0,0,1,0.2400000000000091,-0.058160741836104535)"><svg viewBox="0 0 395.52 47.11632148367221" height="47.11632148367221" width="395.52"><g><svg viewBox="0 0 454.25222894418374 54.11279847696408" height="47.11632148367221" width="395.52"><g transform="matrix(1,0,0,1,58.732228944183746,7.478686330752634)"><svg viewBox="0 0 395.52 39.15542581545881" height="39.15542581545881" width="395.52"><g id="textblocktransform"><svg viewBox="0 0 395.52 39.15542581545881" height="39.15542581545881" width="395.52" id="textblock"><g><svg viewBox="0 0 395.52 39.15542581545881" height="39.15542581545881" width="395.52"><g transform="matrix(1,0,0,1,0,0)"><svg width="395.52" viewBox="2.98 -37.35 384.69 38.08" height="39.15542581545881" data-palette-color="#1a552d"><path d="M26.27-10.35L27-1.22Q21.19-0.78 15.45-0.39 9.72 0 3.91 0.34L3.91 0.34Q3.66-8.98 3.52-18.19 3.37-27.39 2.98-36.77L2.98-36.77Q6.25-36.82 9.42-36.96 12.6-37.11 15.82-37.35L15.82-37.35Q15.28-33.74 14.82-30.1 14.36-26.46 14.11-22.8L14.11-22.8Q13.92-19.73 13.79-16.67 13.67-13.62 13.57-10.55L13.57-10.55Q16.8-10.45 19.95-10.45 23.1-10.45 26.27-10.35L26.27-10.35ZM63.67-18.12L63.67-18.12Q57.27-17.77 50.93-17.55 44.58-17.33 38.18-17.09L38.18-17.09Q38.13-16.89 38.13-16.7 38.13-16.5 38.13-16.31L38.13-16.31Q38.13-14.65 38.89-13.77 39.65-12.89 40.77-12.52 41.89-12.16 43.26-12.11 44.63-12.06 45.8-12.06L45.8-12.06Q49.07-12.06 52.34-12.28 55.61-12.5 58.93-12.74L58.93-12.74 59.32-4.98Q56.1-4.83 52.9-4.74 49.7-4.64 46.48-4.64L46.48-4.64Q45.8-4.64 43.97-4.66 42.14-4.69 40.06-4.81 37.99-4.93 36.18-5.13 34.37-5.32 33.79-5.66L33.79-5.66Q32.27-6.54 31.42-7.91 30.56-9.28 30.1-10.89 29.64-12.5 29.47-14.18 29.29-15.87 29.25-17.43L29.25-17.43Q29.2-17.68 29.22-17.94 29.25-18.21 29.25-18.46L29.25-18.46Q29.25-21.04 29.81-23.27 30.37-25.49 31.88-27.59L31.88-27.59Q32.91-29.05 34.91-30.03 36.91-31.01 39.26-31.57 41.6-32.13 43.94-32.35 46.29-32.57 48-32.57L48-32.57Q49.51-32.57 51.71-32.3 53.9-32.03 56.08-31.4 58.25-30.76 60.01-29.76 61.77-28.76 62.4-27.29L62.4-27.29Q62.5-27 62.62-26.29 62.74-25.59 62.89-24.68 63.03-23.78 63.16-22.75 63.28-21.73 63.38-20.8 63.47-19.87 63.55-19.14 63.62-18.41 63.67-18.12ZM40.72-21.14L57.03-21.68Q56.74-23.83 55.93-25.07 55.12-26.32 53.93-26.93 52.73-27.54 51.19-27.71 49.66-27.88 47.9-27.88L47.9-27.88Q47.31-27.88 46.43-27.86 45.55-27.83 44.68-27.71 43.8-27.59 43.02-27.34 42.23-27.1 41.79-26.66L41.79-26.66Q41.45-26.37 41.23-25.85 41.01-25.34 40.87-24.76 40.72-24.17 40.65-23.61 40.57-23.05 40.57-22.66L40.57-22.66Q40.57-21.88 40.72-21.14L40.72-21.14ZM91.21-8.64L91.21-8.64 90.38-0.05Q88.81 0.05 87.25 0.12 85.69 0.2 84.13 0.2L84.13 0.2Q83.3 0.2 81.93 0.15 80.56 0.1 79.1-0.02 77.63-0.15 76.31-0.37 75-0.59 74.21-0.93L74.21-0.93Q73.04-1.46 72.29-2.34 71.53-3.22 71.04-4.27 70.55-5.32 70.26-6.52 69.97-7.71 69.82-8.89L69.82-8.89Q69.67-10.01 69.6-11.3 69.53-12.6 69.5-13.96 69.48-15.33 69.48-16.63 69.48-17.92 69.48-19.04L69.48-19.04 69.48-20.51 66.45-20.51Q66.65-22.71 66.67-24.85 66.69-27 66.89-29.2L66.89-29.2 69.82-29.1 69.82-36.33Q72.6-35.79 75.36-35.77 78.12-35.74 80.9-35.55L80.9-35.55 80.81-28.08 84.91-27.83Q84.91-27.49 84.93-27.2 84.96-26.9 84.96-26.56L84.96-26.56Q84.96-25.2 84.74-23.9 84.52-22.61 84.17-21.29L84.17-21.29 80.61-21.29Q80.51-19.04 80.46-16.8 80.41-14.55 80.41-12.3L80.41-12.3Q80.41-11.23 80.49-10.38 80.56-9.52 80.88-8.94 81.2-8.35 81.93-8.06 82.66-7.76 83.98-7.76L83.98-7.76Q85.79-7.76 87.59-8.01 89.4-8.25 91.21-8.64ZM143.01-0.15L143.01-0.15 133.29 0.1Q133.19-3.08 133.14-6.2 133.1-9.33 133-12.5L133-12.5 123.82-12.06Q123.77-11.57 123.77-11.11 123.77-10.64 123.77-10.21L123.77-10.21Q123.77-7.47 123.99-4.76 124.21-2.05 124.45 0.63L124.45 0.63Q123.48 0.68 122.48 0.71 121.47 0.73 120.5 0.73L120.5 0.73Q118.59 0.73 116.66 0.66 114.74 0.59 112.83 0.59L112.83 0.59Q112.93-3.96 113.08-8.4 113.22-12.84 113.32-17.38L113.32-17.38Q113.42-21.83 113.44-26.17 113.47-30.52 113.52-34.91L113.52-34.91 121.67-34.91Q122.06-31.25 122.21-27.61 122.35-23.97 122.65-20.31L122.65-20.31Q124.99-20.36 127.28-20.36 129.58-20.36 131.97-20.41L131.97-20.41 132.46-36.23Q133.14-36.28 133.8-36.28 134.46-36.28 135.15-36.28L135.15-36.28Q137.1-36.28 138.98-36.18 140.86-36.08 142.76-35.74L142.76-35.74Q143.01-26.81 142.96-17.94 142.91-9.08 143.01-0.15ZM157.8-32.67L157.8-32.67Q157.8-31.69 157.38-30.83 156.97-29.98 156.26-29.35 155.55-28.71 154.68-28.34 153.8-27.98 152.92-27.98L152.92-27.98Q151.94-27.98 151.09-28.42 150.23-28.86 149.6-29.54 148.96-30.22 148.62-31.13 148.28-32.03 148.28-32.96L148.28-32.96Q148.28-33.89 148.64-34.69 149.01-35.5 149.62-36.08 150.23-36.67 151.04-37.01 151.84-37.35 152.77-37.35L152.77-37.35Q153.7-37.35 154.6-36.99 155.51-36.62 156.21-35.96 156.92-35.3 157.36-34.45 157.8-33.59 157.8-32.67ZM159.8-24.37L159.8-24.37Q159.56-21.78 159.41-19.24 159.26-16.7 159.12-14.16L159.12-14.16Q158.92-11.18 158.46-8.25 158-5.32 157.41-2.39L157.41-2.39 149.94-1.61Q149.94-3.17 149.96-4.69 149.99-6.2 149.99-7.76L149.99-7.76Q149.99-11.77 149.84-15.77 149.69-19.78 149.55-23.78L149.55-23.78Q152.14-23.88 154.65-24.07 157.17-24.27 159.8-24.37ZM211.46-12.35L211.46-12.35Q211.46-10.3 211.39-8.33 211.31-6.35 211.12-4.35L211.12-4.35Q209.07-4.25 207.19-4.13 205.31-4 203.26-3.61L203.26-3.61Q203.84-7.13 203.84-10.69L203.84-10.69Q203.84-11.33 203.74-12.87 203.65-14.4 203.48-16.09 203.31-17.77 203.04-19.19 202.77-20.61 202.43-21.04L202.43-21.04Q202.18-21.34 201.69-21.48 201.21-21.63 200.67-21.7 200.13-21.78 199.59-21.8 199.06-21.83 198.72-21.83L198.72-21.83Q198.13-21.83 197.32-21.78 196.52-21.73 195.69-21.61 194.86-21.48 194.1-21.24 193.34-21 192.86-20.65L192.86-20.65Q192.61-20.46 192.44-19.63 192.27-18.8 192.17-17.63 192.07-16.46 192-15.09 191.93-13.72 191.88-12.52 191.83-11.33 191.83-10.42 191.83-9.52 191.83-9.28L191.83-9.28Q191.83-6.05 191.98-2.83L191.98-2.83Q190.56-2.78 189.22-2.73 187.88-2.69 186.46-2.69L186.46-2.69Q186.31-2.69 186.07-2.69 185.82-2.69 185.58-2.73L185.58-2.73Q185.29-2.73 184.99-2.78L184.99-2.78 184.99-6.35Q184.99-7.86 184.95-9.47 184.9-11.08 184.85-12.3L184.85-12.3Q184.8-13.13 184.7-14.45 184.6-15.77 184.26-17.02 183.92-18.26 183.26-19.17 182.6-20.07 181.43-20.07L181.43-20.07Q180.89-20.07 179.99-19.9 179.09-19.73 178.13-19.46 177.18-19.19 176.38-18.82 175.57-18.46 175.23-18.07L175.23-18.07Q175.13-17.97 175.01-16.97 174.89-15.97 174.79-14.53 174.69-13.09 174.57-11.4 174.45-9.72 174.37-8.25 174.3-6.79 174.23-5.74 174.15-4.69 174.15-4.49L174.15-4.49Q173.18-4.39 172.18-4.32 171.18-4.25 170.2-4.25L170.2-4.25Q169.27-4.25 168.34-4.3 167.42-4.35 166.54-4.44L166.54-4.44Q166.29-10.64 165.83-16.7 165.37-22.75 164.83-28.96L164.83-28.96Q166.2-29.1 167.54-29.22 168.88-29.35 170.25-29.35L170.25-29.35Q171.57-29.35 172.89-29.3 174.2-29.25 175.57-29.2L175.57-29.2 174.94-25Q177.18-26.81 179.26-27.69 181.33-28.56 184.21-28.56L184.21-28.56Q185.34-28.56 186.19-28.3 187.05-28.03 187.75-27.56 188.46-27.1 189.15-26.46 189.83-25.83 190.61-25.1L190.61-25.1Q191.49-26.46 192.64-27.27 193.78-28.08 195.1-28.52 196.42-28.96 197.89-29.08 199.35-29.2 200.82-29.2L200.82-29.2Q201.99-29.2 203.28-29.13 204.57-29.05 205.77-28.71 206.97-28.37 207.94-27.69 208.92-27 209.46-25.83L209.46-25.83Q210.09-24.41 210.48-22.71 210.87-21 211.09-19.19 211.31-17.38 211.39-15.63 211.46-13.87 211.46-12.35ZM269.12-11.57L269.12-11.57 269.07-3.96Q266.83-3.52 264.63-3.13 262.43-2.73 260.19-2.44L260.19-2.44Q257.84-2.15 255.5-1.9 253.15-1.66 250.81-1.66L250.81-1.66Q250.13-1.66 248.81-1.71 247.49-1.76 246.07-1.9 244.66-2.05 243.39-2.27 242.12-2.49 241.53-2.83L241.53-2.83Q241-3.17 240.51-3.64 240.02-4.1 239.63-4.59L239.63-4.59Q238.6-5.86 237.92-7.37 237.24-8.89 236.85-10.5 236.45-12.11 236.28-13.77 236.11-15.43 236.11-17.04L236.11-17.04Q236.11-18.99 236.33-21.09 236.55-23.19 237.04-25.24 237.53-27.29 238.33-29.2 239.14-31.1 240.31-32.71L240.31-32.71Q240.65-33.15 241.19-33.79 241.73-34.42 242.27-34.72L242.27-34.72Q243.58-35.45 245.22-35.94 246.86-36.43 248.61-36.69 250.37-36.96 252.1-37.08 253.84-37.21 255.3-37.21L255.3-37.21Q258.09-37.21 260.87-36.89 263.65-36.57 266.29-35.79L266.29-35.79Q266.19-34.47 266.14-33.13 266.09-31.79 266.09-30.47L266.09-30.47Q266.09-27.29 266.24-24.07L266.24-24.07Q264.04-24.9 261.65-25.27 259.26-25.63 256.91-25.63L256.91-25.63Q256.43-25.63 255.5-25.56 254.57-25.49 253.4-25.37 252.23-25.24 250.98-25.05 249.74-24.85 248.66-24.56 247.59-24.27 246.78-23.88 245.98-23.49 245.73-23.05L245.73-23.05Q245.54-22.66 245.41-21.95 245.29-21.24 245.22-20.46 245.15-19.68 245.12-18.95 245.1-18.21 245.1-17.77L245.1-17.77Q245.1-17.33 245.19-16.02 245.29-14.7 245.44-13.21 245.59-11.72 245.81-10.5 246.02-9.28 246.27-9.08L246.27-9.08Q246.51-8.94 247.07-8.91 247.64-8.89 247.83-8.89L247.83-8.89Q250.22-8.89 252.96-9.13 255.69-9.38 258.5-9.79 261.31-10.21 264.04-10.67 266.78-11.13 269.12-11.57ZM308.86-19.34L308.86-19.34Q308.86-18.95 308.86-18.58 308.86-18.21 308.82-17.82L308.82-17.82Q308.77-17.14 308.57-15.58 308.38-14.01 308.03-12.33 307.69-10.64 307.2-9.23 306.72-7.81 306.13-7.42L306.13-7.42Q305.84-7.23 304.15-7.08 302.47-6.93 300.05-6.79 297.63-6.64 294.8-6.54 291.97-6.45 289.41-6.37 286.84-6.3 284.91-6.25 282.99-6.2 282.35-6.2L282.35-6.2Q282.06-6.2 281.35-6.2 280.64-6.2 279.86-6.23 279.08-6.25 278.4-6.3 277.71-6.35 277.42-6.45L277.42-6.45Q276.74-6.69 276.05-7.25 275.37-7.81 274.78-8.52 274.2-9.23 273.73-9.99 273.27-10.74 273.07-11.43L273.07-11.43Q272.93-11.96 272.83-13.06 272.73-14.16 272.68-15.36 272.63-16.55 272.61-17.68 272.58-18.8 272.58-19.38L272.58-19.38Q272.58-20.31 272.63-21.95 272.68-23.58 272.93-25.29 273.17-27 273.63-28.49 274.1-29.98 274.98-30.57L274.98-30.57Q275.37-30.81 276.44-31.01 277.52-31.2 278.98-31.35 280.45-31.49 282.11-31.57 283.77-31.64 285.35-31.67 286.94-31.69 288.31-31.69 289.67-31.69 290.5-31.64L290.5-31.64Q291.24-31.59 292.6-31.57 293.97-31.54 295.66-31.49 297.34-31.45 299.15-31.32 300.95-31.2 302.52-31.01 304.08-30.81 305.28-30.49 306.47-30.18 306.86-29.74L306.86-29.74Q307.5-29.05 307.89-27.69 308.28-26.32 308.5-24.78 308.72-23.24 308.79-21.75 308.86-20.26 308.86-19.34ZM298.51-18.31L298.51-18.31Q298.51-18.9 298.46-19.68 298.42-20.46 298.32-21.26 298.22-22.07 298.02-22.83 297.83-23.58 297.54-24.07L297.54-24.07Q297.15-24.71 296.02-25.05 294.9-25.39 293.56-25.56 292.21-25.73 290.92-25.78 289.63-25.83 288.99-25.83L288.99-25.83Q288.65-25.83 287.77-25.81 286.89-25.78 285.94-25.73 284.99-25.68 284.16-25.56 283.33-25.44 283.08-25.29L283.08-25.29Q282.64-25 282.4-24.39 282.16-23.78 282.03-23.05 281.91-22.31 281.89-21.61 281.86-20.9 281.86-20.46L281.86-20.46Q281.86-20.02 281.94-18.87 282.01-17.72 282.13-16.43 282.25-15.14 282.45-14.06 282.64-12.99 282.94-12.7L282.94-12.7Q283.28-12.3 284.23-12.06 285.18-11.82 286.28-11.65 287.38-11.47 288.41-11.4 289.43-11.33 289.87-11.33L289.87-11.33Q290.65-11.33 291.73-11.38 292.8-11.43 293.9-11.62 295-11.82 295.97-12.16 296.95-12.5 297.54-13.09L297.54-13.09Q297.88-13.43 298.07-14.11 298.27-14.79 298.37-15.58 298.46-16.36 298.49-17.11 298.51-17.87 298.51-18.31ZM349.68-19.34L349.68-19.34Q349.68-18.95 349.68-18.58 349.68-18.21 349.63-17.82L349.63-17.82Q349.58-17.14 349.39-15.58 349.19-14.01 348.85-12.33 348.51-10.64 348.02-9.23 347.53-7.81 346.95-7.42L346.95-7.42Q346.65-7.23 344.97-7.08 343.29-6.93 340.87-6.79 338.45-6.64 335.62-6.54 332.79-6.45 330.22-6.37 327.66-6.3 325.73-6.25 323.8-6.2 323.17-6.2L323.17-6.2Q322.88-6.2 322.17-6.2 321.46-6.2 320.68-6.23 319.9-6.25 319.21-6.3 318.53-6.35 318.24-6.45L318.24-6.45Q317.55-6.69 316.87-7.25 316.19-7.81 315.6-8.52 315.01-9.23 314.55-9.99 314.09-10.74 313.89-11.43L313.89-11.43Q313.74-11.96 313.65-13.06 313.55-14.16 313.5-15.36 313.45-16.55 313.43-17.68 313.4-18.8 313.4-19.38L313.4-19.38Q313.4-20.31 313.45-21.95 313.5-23.58 313.74-25.29 313.99-27 314.45-28.49 314.92-29.98 315.8-30.57L315.8-30.57Q316.19-30.81 317.26-31.01 318.33-31.2 319.8-31.35 321.26-31.49 322.92-31.57 324.58-31.64 326.17-31.67 327.76-31.69 329.13-31.69 330.49-31.69 331.32-31.64L331.32-31.64Q332.06-31.59 333.42-31.57 334.79-31.54 336.47-31.49 338.16-31.45 339.97-31.32 341.77-31.2 343.33-31.01 344.9-30.81 346.09-30.49 347.29-30.18 347.68-29.74L347.68-29.74Q348.31-29.05 348.71-27.69 349.1-26.32 349.32-24.78 349.54-23.24 349.61-21.75 349.68-20.26 349.68-19.34ZM339.33-18.31L339.33-18.31Q339.33-18.9 339.28-19.68 339.23-20.46 339.14-21.26 339.04-22.07 338.84-22.83 338.65-23.58 338.35-24.07L338.35-24.07Q337.96-24.71 336.84-25.05 335.72-25.39 334.37-25.56 333.03-25.73 331.74-25.78 330.44-25.83 329.81-25.83L329.81-25.83Q329.47-25.83 328.59-25.81 327.71-25.78 326.76-25.73 325.81-25.68 324.98-25.56 324.14-25.44 323.9-25.29L323.9-25.29Q323.46-25 323.22-24.39 322.97-23.78 322.85-23.05 322.73-22.31 322.7-21.61 322.68-20.9 322.68-20.46L322.68-20.46Q322.68-20.02 322.75-18.87 322.83-17.72 322.95-16.43 323.07-15.14 323.27-14.06 323.46-12.99 323.75-12.7L323.75-12.7Q324.1-12.3 325.05-12.06 326-11.82 327.1-11.65 328.2-11.47 329.22-11.4 330.25-11.33 330.69-11.33L330.69-11.33Q331.47-11.33 332.54-11.38 333.62-11.43 334.72-11.62 335.81-11.82 336.79-12.16 337.77-12.5 338.35-13.09L338.35-13.09Q338.7-13.43 338.89-14.11 339.09-14.79 339.18-15.58 339.28-16.36 339.31-17.11 339.33-17.87 339.33-18.31ZM387.67-26.9L387.67-26.9 375.12-17.82Q375.27-17.24 375.7-15.94 376.14-14.65 376.68-13.26 377.22-11.87 377.83-10.67 378.44-9.47 378.98-9.13L378.98-9.13Q379.32-8.89 379.86-8.74 380.39-8.59 380.95-8.5 381.52-8.4 382.08-8.37 382.64-8.35 383.03-8.35L383.03-8.35Q383.71-8.35 384.45-8.4 385.18-8.45 385.86-8.54L385.86-8.54Q385.76-7.91 385.71-7.25 385.67-6.59 385.67-5.91L385.67-5.91Q385.67-4.74 385.71-3.56 385.76-2.39 385.76-1.27L385.76-1.27Q385.42-1.22 384.57-1.15 383.71-1.07 382.61-1 381.52-0.93 380.29-0.83 379.07-0.73 378.02-0.66 376.97-0.59 376.22-0.59 375.46-0.59 375.27-0.68L375.27-0.68Q374.44-1.07 373.65-1.51 372.87-1.95 372.34-2.73L372.34-2.73Q372.09-3.08 371.53-4.59 370.97-6.1 370.36-7.91 369.75-9.72 369.24-11.28 368.72-12.84 368.58-13.28L368.58-13.28 363.89-10.25 363.89-1.76 354.22-0.93Q354.51-7.76 354.86-14.53 355.2-21.29 355.2-28.17L355.2-28.17Q355.2-30.27 355.17-32.32 355.15-34.38 355.1-36.52L355.1-36.52Q357.1-36.13 359.08-36.04 361.06-35.94 363.06-35.74L363.06-35.74 363.06-17.48Q366.87-19.82 370.5-22.27 374.14-24.71 377.56-27.64L377.56-27.64Q380.15-27.34 382.61-27.2 385.08-27.05 387.67-26.9Z" opacity="1" transform="matrix(1,0,0,1,0,0)" fill="#1a552d" class="wordmark-text-0" data-fill-palette-color="primary" id="text-0"></path></svg></g></svg></g></svg></g></svg></g><g><svg viewBox="0 0 49.48857263937349 54.11279847696408" height="54.11279847696408" width="49.48857263937349"><g><svg xmlns="http://www.w3.org/2000/svg" xmlns:xlink="http://www.w3.org/1999/xlink" version="1.1" x="0" y="0" viewBox="12.3265 14.51615045314357 72.01111148542402 78.73984954685643" enable-background="new 0 0 100 100" xml:space="preserve" height="54.11279847696408" width="49.48857263937349" class="icon-icon-0" data-fill-palette-color="accent" id="icon-0"><g fill="#1a552d" data-fill-palette-color="accent"><g fill="#1a552d" data-fill-palette-color="accent"><path fill="#1a552d" d="M65.145 93.256H35.901c-0.221 0-0.44-0.05-0.639-0.146-8.995-4.344-15.737-12.332-18.498-21.916-0.128-0.444-0.04-0.922 0.238-1.291 0.277-0.369 0.712-0.586 1.174-0.586h64.692c0.462 0 0.896 0.217 1.175 0.586 0.277 0.369 0.365 0.847 0.237 1.291-2.762 9.585-9.504 17.573-18.497 21.916C65.584 93.206 65.366 93.256 65.145 93.256zM36.242 90.316h28.563c7.501-3.719 13.256-10.22 16.048-18.061h-60.66C22.984 80.096 28.739 86.597 36.242 90.316z" data-fill-palette-color="accent"></path></g><g fill="#1a552d" data-fill-palette-color="accent"><path fill="#1a552d" d="M65.816 84.847c-0.445 0-0.885-0.201-1.174-0.584-0.489-0.647-0.36-1.569 0.287-2.059 4.075-3.077 7.4-7.127 9.618-11.712 0.354-0.732 1.234-1.035 1.963-0.684 0.731 0.354 1.037 1.232 0.684 1.963-2.419 5.003-6.048 9.422-10.493 12.778C66.437 84.75 66.125 84.847 65.816 84.847z" data-fill-palette-color="accent"></path></g></g><g fill="#1a552d" data-fill-palette-color="accent"><path fill="#1a552d" d="M24.839 71.589c-0.376 0-0.752-0.144-1.04-0.431L12.757 60.116c-0.574-0.573-0.574-1.505 0-2.078 0.574-0.574 1.505-0.574 2.079 0L25.878 69.08c0.574 0.573 0.574 1.505 0 2.078C25.591 71.445 25.215 71.589 24.839 71.589z" data-fill-palette-color="accent"></path></g><g fill="#1a552d" data-fill-palette-color="accent"><path fill="#1a552d" d="M32.839 71.589c-0.376 0-0.752-0.144-1.04-0.431L20.757 60.116c-0.574-0.573-0.574-1.505 0-2.078 0.574-0.574 1.505-0.574 2.079 0L33.878 69.08c0.574 0.573 0.574 1.505 0 2.078C33.591 71.445 33.215 71.589 32.839 71.589z" data-fill-palette-color="accent"></path></g><g fill="#1a552d" data-fill-palette-color="accent"><path fill="#1a552d" d="M40.181 57.492c-0.299 0-0.601-0.091-0.861-0.279-1.935-1.402-3.09-3.664-3.09-6.052 0-2.369 1.141-4.622 3.053-6.025 0.654-0.48 1.574-0.339 2.055 0.314 0.48 0.654 0.34 1.574-0.314 2.055-1.178 0.865-1.854 2.197-1.854 3.656 0 1.448 0.701 2.82 1.875 3.671 0.657 0.477 0.805 1.396 0.328 2.053C41.084 57.282 40.636 57.492 40.181 57.492z" data-fill-palette-color="accent"></path></g><g fill="#1a552d" data-fill-palette-color="accent"><path fill="#1a552d" d="M57.472 57.492c-0.299 0-0.601-0.091-0.861-0.279-1.935-1.402-3.09-3.664-3.09-6.052 0-2.369 1.141-4.622 3.053-6.025 0.654-0.48 1.574-0.339 2.055 0.314 0.48 0.654 0.34 1.574-0.314 2.055-1.178 0.865-1.854 2.197-1.854 3.656 0 1.448 0.701 2.82 1.875 3.671 0.657 0.477 0.805 1.396 0.328 2.053C58.375 57.282 57.927 57.492 57.472 57.492z" data-fill-palette-color="accent"></path></g><g fill="#1a552d" data-fill-palette-color="accent"><path fill="#1a552d" d="M40.729 47.325c-0.452 0-0.897-0.207-1.186-0.6-0.48-0.654-0.34-1.574 0.314-2.055 1.178-0.865 1.854-2.197 1.854-3.656 0-1.448-0.701-2.82-1.875-3.671-0.657-0.477-0.805-1.396-0.328-2.053s1.395-0.805 2.053-0.328c1.935 1.402 3.09 3.665 3.09 6.052 0 2.369-1.141 4.622-3.053 6.025C41.337 47.232 41.031 47.325 40.729 47.325z" data-fill-palette-color="accent"></path></g><g fill="#1a552d" data-fill-palette-color="accent"><path fill="#1a552d" d="M31.394 57.492c-0.299 0-0.601-0.091-0.861-0.279-1.935-1.402-3.09-3.664-3.09-6.052 0-2.369 1.141-4.622 3.053-6.025 0.654-0.48 1.575-0.339 2.055 0.314 0.48 0.654 0.34 1.574-0.314 2.055-1.178 0.865-1.854 2.197-1.854 3.656 0 1.448 0.701 2.82 1.875 3.671 0.657 0.477 0.805 1.396 0.328 2.053C32.297 57.282 31.849 57.492 31.394 57.492z" data-fill-palette-color="accent"></path></g><g fill="#1a552d" data-fill-palette-color="accent"><path fill="#1a552d" d="M31.942 47.325c-0.452 0-0.897-0.207-1.186-0.6-0.48-0.654-0.34-1.574 0.314-2.055 1.178-0.865 1.854-2.197 1.854-3.656 0-1.448-0.701-2.82-1.875-3.671-0.657-0.477-0.805-1.396-0.328-2.053s1.395-0.805 2.053-0.328c1.935 1.402 3.09 3.665 3.09 6.052 0 2.369-1.141 4.622-3.053 6.025C32.55 47.232 32.244 47.325 31.942 47.325z" data-fill-palette-color="accent"></path></g><g fill="#1a552d" data-fill-palette-color="accent"><path fill="#1a552d" d="M65.69 57.492c-0.299 0-0.601-0.091-0.861-0.279-1.935-1.402-3.09-3.664-3.09-6.052 0-2.368 1.142-4.621 3.055-6.025 0.657-0.48 1.575-0.339 2.055 0.314 0.48 0.654 0.34 1.574-0.314 2.055-1.179 0.866-1.855 2.198-1.855 3.656 0 1.448 0.701 2.82 1.875 3.671 0.657 0.477 0.805 1.396 0.328 2.053C66.594 57.282 66.146 57.492 65.69 57.492z" data-fill-palette-color="accent"></path></g><g fill="#1a552d" data-fill-palette-color="accent"><path fill="#1a552d" d="M66.239 47.325c-0.452 0-0.897-0.207-1.186-0.6-0.48-0.654-0.34-1.574 0.314-2.055 1.179-0.866 1.855-2.198 1.855-3.656 0-1.448-0.701-2.82-1.877-3.67-0.657-0.476-0.805-1.395-0.328-2.053 0.476-0.659 1.395-0.805 2.053-0.329 1.936 1.401 3.092 3.664 3.092 6.052 0 2.368-1.142 4.621-3.055 6.025C66.846 47.232 66.541 47.325 66.239 47.325z" data-fill-palette-color="accent"></path></g><g fill="#1a552d" data-fill-palette-color="accent"><path fill="#1a552d" d="M40.181 37.326c-0.299 0-0.601-0.091-0.861-0.28-1.935-1.402-3.09-3.665-3.09-6.052 0-2.37 1.141-4.622 3.053-6.026 0.654-0.479 1.574-0.338 2.055 0.315 0.48 0.654 0.34 1.575-0.314 2.055-1.178 0.865-1.854 2.197-1.854 3.656 0 1.448 0.701 2.82 1.875 3.671 0.657 0.477 0.805 1.396 0.328 2.053C41.084 37.115 40.636 37.326 40.181 37.326z" data-fill-palette-color="accent"></path></g><g fill="#1a552d" data-fill-palette-color="accent"><path fill="#1a552d" d="M48.556 57.492c-0.299 0-0.601-0.091-0.861-0.279-1.935-1.402-3.09-3.664-3.09-6.052 0-2.369 1.141-4.622 3.053-6.025 0.654-0.48 1.574-0.339 2.055 0.314 0.48 0.654 0.34 1.574-0.314 2.055-1.178 0.865-1.854 2.197-1.854 3.656 0 1.448 0.701 2.82 1.875 3.671 0.657 0.477 0.805 1.396 0.328 2.053C49.459 57.282 49.011 57.492 48.556 57.492z" data-fill-palette-color="accent"></path></g><g fill="#1a552d" data-fill-palette-color="accent"><path fill="#1a552d" d="M49.104 47.325c-0.452 0-0.897-0.207-1.186-0.6-0.48-0.654-0.34-1.574 0.314-2.055 1.178-0.865 1.854-2.197 1.854-3.656 0-1.448-0.701-2.82-1.875-3.671-0.657-0.477-0.805-1.396-0.328-2.053s1.394-0.805 2.053-0.328c1.935 1.402 3.09 3.665 3.09 6.052 0 2.369-1.141 4.622-3.053 6.025C49.712 47.232 49.406 47.325 49.104 47.325z" data-fill-palette-color="accent"></path></g><g fill="#1a552d" data-fill-palette-color="accent"><path fill="#1a552d" d="M48.556 37.326c-0.299 0-0.601-0.091-0.861-0.28-1.935-1.402-3.09-3.665-3.09-6.052 0-2.37 1.141-4.622 3.053-6.026 0.654-0.479 1.574-0.338 2.055 0.315 0.48 0.654 0.34 1.575-0.314 2.055-1.178 0.865-1.854 2.197-1.854 3.656 0 1.448 0.701 2.82 1.875 3.671 0.657 0.477 0.805 1.396 0.328 2.053C49.459 37.115 49.011 37.326 48.556 37.326z" data-fill-palette-color="accent"></path></g><g fill="#1a552d" data-fill-palette-color="accent"><path fill="#1a552d" d="M40.729 27.159c-0.452 0-0.897-0.208-1.186-0.6-0.48-0.654-0.34-1.575 0.314-2.055 1.178-0.865 1.854-2.197 1.854-3.656 0-1.448-0.701-2.82-1.875-3.671-0.657-0.477-0.805-1.396-0.328-2.053 0.477-0.657 1.395-0.805 2.053-0.328 1.935 1.402 3.09 3.665 3.09 6.052 0 2.37-1.141 4.622-3.053 6.026C41.337 27.066 41.031 27.159 40.729 27.159z" data-fill-palette-color="accent"></path></g><g fill="#1a552d" data-fill-palette-color="accent"><path fill="#1a552d" d="M56.499 37.326c-0.299 0-0.601-0.091-0.861-0.279-1.936-1.401-3.092-3.664-3.092-6.052 0-2.369 1.142-4.621 3.055-6.026 0.656-0.479 1.575-0.338 2.055 0.315 0.48 0.654 0.34 1.575-0.314 2.055-1.179 0.865-1.855 2.198-1.855 3.656 0 1.448 0.701 2.82 1.877 3.67 0.657 0.476 0.805 1.395 0.328 2.053C57.403 37.115 56.954 37.326 56.499 37.326z" data-fill-palette-color="accent"></path></g><g fill="#1a552d" data-fill-palette-color="accent"><path fill="#1a552d" d="M57.046 27.159c-0.452 0-0.897-0.208-1.186-0.6-0.48-0.654-0.34-1.575 0.314-2.055 1.179-0.865 1.855-2.198 1.855-3.656 0-1.448-0.701-2.82-1.877-3.67-0.657-0.476-0.805-1.395-0.328-2.053 0.476-0.659 1.395-0.805 2.053-0.329 1.936 1.401 3.092 3.664 3.092 6.052 0 2.369-1.142 4.621-3.055 6.026C57.652 27.066 57.348 27.159 57.046 27.159z" data-fill-palette-color="accent"></path></g></svg></g></svg></g></svg></g><defs></defs></svg><rect width="395.52" height="47.11632148367221" fill="none" stroke="none" visibility="hidden"></rect></g></svg></g></svg>